<?xml version="1.0" encoding="UTF-8"?><svg id="Layer_1" xmlns="http://www.w3.org/2000/svg" viewBox="0 0 42 108"><path d="M-14,34H56c9.93,0,18,8.07,18,18v22H-32v-22c0-9.93,8.07-18,18-18Z" transform="translate(-33 75) rotate(-90)" style="fill:#00b1ae;"/><g><path d="M25.27,93.58v-4.72h1.07v6.04h-9.95v-1.32h8.88Z" style="fill:#fff;"/><path d="M26.48,84.49c0,1-.33,1.82-.99,2.45-.66,.63-1.54,.94-2.64,.94h-.23c-.73,0-1.39-.14-1.97-.42-.58-.28-1.03-.67-1.35-1.18-.33-.5-.49-1.05-.49-1.64,0-.96,.32-1.71,.95-2.24s1.54-.8,2.72-.8h.53v5.01c.73-.02,1.32-.23,1.77-.64,.45-.41,.67-.93,.67-1.55,0-.45-.09-.82-.27-1.13s-.42-.58-.72-.81l.6-.77c.95,.62,1.43,1.55,1.43,2.79Zm-6.63,.16c0,.51,.19,.94,.56,1.29,.37,.35,.89,.56,1.56,.64v-3.71h-.1c-.64,.04-1.14,.21-1.49,.52-.35,.31-.53,.73-.53,1.26Z" style="fill:#fff;"/><path d="M17.15,78.43h1.79v-1.38h.98v1.38h4.59c.3,0,.52-.06,.67-.18s.22-.33,.22-.63c0-.15-.03-.35-.08-.6h1.02c.09,.33,.14,.66,.14,.97,0,.56-.17,.99-.51,1.28s-.83,.43-1.46,.43h-4.59v1.35h-.98v-1.35h-1.79v-1.26Z" style="fill:#fff;"/><path d="M19.19,75.48l-.49,.72c-.59-.42-1.22-.64-1.87-.66h-.98v-1.25h.89c.46,0,.91,.12,1.36,.34,.45,.22,.82,.51,1.1,.85Z" style="fill:#fff;"/><path d="M24.38,69.23c-.34,0-.61,.13-.8,.39-.19,.26-.35,.71-.49,1.35-.14,.64-.3,1.15-.49,1.53-.19,.38-.42,.65-.68,.83-.26,.18-.58,.27-.94,.27-.61,0-1.12-.26-1.54-.77-.42-.51-.63-1.17-.63-1.96,0-.84,.22-1.52,.65-2.04,.43-.52,.99-.78,1.66-.78v1.27c-.35,0-.64,.15-.9,.44-.25,.29-.38,.66-.38,1.11s.1,.82,.3,1.08,.46,.39,.79,.39c.31,0,.54-.12,.69-.36s.3-.68,.44-1.31c.14-.63,.31-1.14,.51-1.54s.43-.68,.71-.87c.28-.19,.61-.28,1.01-.28,.66,0,1.19,.26,1.59,.79,.4,.53,.6,1.21,.6,2.06,0,.59-.1,1.12-.31,1.57s-.5,.81-.88,1.07c-.38,.26-.78,.39-1.22,.39v-1.26c.42-.02,.76-.19,1.01-.51,.25-.32,.37-.73,.37-1.25,0-.48-.1-.86-.29-1.15-.19-.29-.45-.43-.78-.43Z" style="fill:#fff;"/><path d="M23.18,55.34c1.05,.12,1.87,.51,2.44,1.17,.57,.65,.86,1.52,.86,2.61,0,1.18-.42,2.12-1.26,2.83-.84,.71-1.97,1.06-3.38,1.06h-.96c-.92,0-1.74-.17-2.44-.5-.7-.33-1.24-.8-1.62-1.4-.38-.61-.56-1.31-.56-2.11,0-1.06,.29-1.91,.88-2.54,.59-.64,1.41-1.01,2.45-1.11v1.32c-.79,.11-1.37,.36-1.73,.74-.36,.38-.54,.91-.54,1.6,0,.84,.31,1.5,.93,1.97,.62,.48,1.5,.71,2.65,.71h.96c1.08,0,1.94-.23,2.58-.68s.96-1.08,.96-1.89c0-.73-.17-1.29-.5-1.68-.33-.39-.91-.65-1.73-.78v-1.32Z" style="fill:#fff;"/><path d="M22.58,54.08c-.73,0-1.38-.14-1.96-.43-.58-.29-1.03-.68-1.34-1.19-.31-.51-.47-1.09-.47-1.74,0-1.01,.35-1.82,1.05-2.44,.7-.62,1.62-.93,2.78-.93h.09c.72,0,1.37,.14,1.94,.41,.57,.28,1.02,.67,1.34,1.18,.32,.51,.48,1.1,.48,1.77,0,1-.35,1.81-1.05,2.44-.7,.62-1.62,.93-2.77,.93h-.09Zm.15-1.27c.82,0,1.48-.19,1.98-.57,.5-.38,.75-.89,.75-1.53s-.25-1.15-.75-1.53c-.5-.38-1.21-.57-2.12-.57-.81,0-1.47,.19-1.97,.58-.5,.39-.76,.9-.76,1.54s.25,1.13,.75,1.51,1.21,.57,2.13,.57Z" style="fill:#fff;"/><path d="M18.94,44.56l.93-.04c-.71-.57-1.07-1.3-1.07-2.21,0-1.56,.88-2.35,2.65-2.37h4.89v1.26h-4.9c-.53,0-.93,.13-1.18,.37-.25,.24-.38,.61-.38,1.12,0,.41,.11,.77,.33,1.08s.51,.55,.86,.72h5.27v1.26h-7.4v-1.2Z" style="fill:#fff;"/><path d="M18.94,36.84l.93-.04c-.71-.57-1.07-1.3-1.07-2.21,0-1.56,.88-2.35,2.65-2.37h4.89v1.26h-4.9c-.53,0-.93,.13-1.18,.37-.25,.24-.38,.61-.38,1.12,0,.41,.11,.77,.33,1.08s.51,.55,.86,.72h5.27v1.26h-7.4v-1.2Z" style="fill:#fff;"/><path d="M26.48,27.24c0,1-.33,1.82-.99,2.45-.66,.63-1.54,.94-2.64,.94h-.23c-.73,0-1.39-.14-1.97-.42-.58-.28-1.03-.67-1.35-1.18-.33-.5-.49-1.05-.49-1.64,0-.96,.32-1.71,.95-2.24s1.54-.8,2.72-.8h.53v5.01c.73-.02,1.32-.23,1.77-.64,.45-.41,.67-.93,.67-1.56,0-.45-.09-.83-.27-1.13s-.42-.58-.72-.81l.6-.77c.95,.62,1.43,1.55,1.43,2.79Zm-6.63,.16c0,.51,.19,.94,.56,1.29,.37,.35,.89,.56,1.56,.64v-3.71h-.1c-.64,.04-1.14,.21-1.49,.52-.35,.31-.53,.73-.53,1.26Z" style="fill:#fff;"/><path d="M25.45,19.93c0-.45-.14-.85-.41-1.18s-.62-.52-1.03-.56v-1.2c.42,.02,.83,.17,1.21,.44s.69,.63,.92,1.08c.23,.45,.34,.92,.34,1.43,0,1.01-.34,1.81-1.01,2.4-.67,.6-1.59,.89-2.76,.89h-.21c-.72,0-1.36-.13-1.92-.4s-1-.64-1.31-1.14c-.31-.49-.46-1.08-.46-1.75,0-.83,.25-1.52,.75-2.07,.5-.55,1.14-.84,1.93-.88v1.2c-.48,.04-.87,.22-1.18,.54-.31,.33-.46,.73-.46,1.21,0,.64,.23,1.14,.69,1.49,.46,.35,1.13,.53,2.01,.53h.24c.85,0,1.51-.18,1.97-.53s.69-.85,.69-1.5Z" style="fill:#fff;"/><path d="M17.15,13.85h1.79v-1.38h.98v1.38h4.59c.3,0,.52-.06,.67-.18s.22-.33,.22-.63c0-.15-.03-.35-.08-.6h1.02c.09,.33,.14,.66,.14,.97,0,.57-.17,.99-.51,1.28s-.83,.43-1.46,.43h-4.59v1.35h-.98v-1.35h-1.79v-1.26Z" style="fill:#fff;"/></g></svg>