<?xml version="1.0" encoding="utf-8"?>
<!-- Generator: Adobe Illustrator 22.0.1, SVG Export Plug-In . SVG Version: 6.00 Build 0)  -->
<svg version="1.1" id="Layer_1" xmlns="http://www.w3.org/2000/svg" xmlns:xlink="http://www.w3.org/1999/xlink" x="0px" y="0px"
	 viewBox="0 0 172.8 172.8" style="enable-background:new 0 0 172.8 172.8;" xml:space="preserve">
<style type="text/css">
	.st0{fill:#000000;}
	.st1{clip-path:url(#SVGID_2_);fill:#FFFFFF;}
	.st2{fill:#FFFFFF;}
</style>
<path class="st0" d="M61.2,12.8c-0.7,0.1-1.2,0.6-1.3,1.3l-8,35.1C41,57.9,34.1,71.4,34.1,86.4c0,15.1,6.9,28.5,17.8,37.3l8,35
	c0.2,0.8,0.9,1.3,1.7,1.3h41.1c0.8,0,1.5-0.6,1.7-1.3l8-35c7.9-6.4,13.7-15.2,16.3-25.3h4.9c2.8,0,5.1-2.3,5.1-5.1V79.7
	c0-2.8-2.3-5.1-5.1-5.1h-4.9c-2.6-10.1-8.4-18.9-16.3-25.3l-8-35.1c-0.2-0.8-0.9-1.3-1.7-1.3H61.6C61.4,12.8,61.3,12.8,61.2,12.8z"
	/>
<path class="st0" d="M62.9,16.3h38.5l6.8,30c-7.5-4.9-16.5-7.7-26-7.7c-9.6,0-18.5,2.8-26,7.7L62.9,16.3z"/>
<path class="st0" d="M129.3,78h4.2c1,0,1.7,0.7,1.7,1.7v13.7c0,1-0.7,1.7-1.7,1.7h-4.2c0.5-2.8,0.8-5.6,0.8-8.6
	C130.1,83.6,129.8,80.8,129.3,78z"/>
<path class="st0" d="M56,126.9c7.5,4.9,16.5,7.7,26,7.7c9.6,0,18.5-2.8,26-7.7l-6.8,30H62.8L56,126.9z"/>
<circle class="st0" cx="82.1" cy="86.6" r="44.6"/>
<g>
	<defs>
		<rect id="SVGID_1_" x="86.4" y="12.8" width="52.3" height="147.3"/>
	</defs>
	<clipPath id="SVGID_2_">
		<use xlink:href="#SVGID_1_"  style="overflow:visible;"/>
	</clipPath>
	<path class="st1" d="M63,16.3h38.5l6.8,30c-7.5-4.9-16.5-7.7-26-7.7c-9.6,0-18.5,2.8-26,7.7L63,16.3z"/>
	<path class="st1" d="M56.1,126.9c7.5,4.9,16.5,7.7,26,7.7c9.6,0,18.5-2.8,26-7.7l-6.8,30H62.9L56.1,126.9z"/>
	<circle class="st1" cx="82.2" cy="86.6" r="44.6"/>
</g>
<rect x="82.1" y="4.5" class="st2" width="4.3" height="158.7"/>
</svg>
