<svg id="Layer_1" data-name="Layer 1" xmlns="http://www.w3.org/2000/svg" viewBox="0 0 68 68"><defs><style>.cls-1{fill:#4addc2;}.cls-2{fill:#fcfbfa;fill-rule:evenodd;}</style></defs><circle class="cls-1" cx="34" cy="34" r="34"/><path id="path0" class="cls-2" d="M22.12,17.05a6.3,6.3,0,0,0-4.69,4,21.15,21.15,0,0,0-.05,8.09,28.65,28.65,0,0,0,3.83,7.94c5.91,8,13,13.36,18.27,13.78A31.8,31.8,0,0,0,47,50.66c2.86-.95,4.69-4.45,3.71-7.06-.39-1-1.63-1.76-4-2.35-.55-.14-1.28-.35-1.64-.46-3.2-1-4.27-.92-5.88.59-1.26,1.17-1.94,1.52-2.82,1.44-1.77-.17-4.43-2.5-8.42-7.38-3.19-3.91-3.34-4.69-1.28-6.83,1.82-1.89,1.94-3,.73-6.77-.17-.53-.44-1.5-.59-2.15-.43-1.79-.77-2.35-1.57-2.59a16.89,16.89,0,0,0-3.16-.05"/></svg>