<svg id="Layer_1" data-name="Layer 1" xmlns="http://www.w3.org/2000/svg" viewBox="0 0 68 68"><defs><style>.cls-1{fill:#4addc2;}.cls-2{fill:#fff;}</style></defs><circle class="cls-1" cx="34" cy="34" r="34"/><path class="cls-2" d="M14,33.72a13.89,13.89,0,0,1,.94-4.85,16,16,0,0,1,2.67-4.34,14.85,14.85,0,0,1,3-2.71,21.12,21.12,0,0,1,8.45-3.46,24.28,24.28,0,0,1,5.9-.3A22.39,22.39,0,0,1,42.72,20,19.11,19.11,0,0,1,47.5,23,14.94,14.94,0,0,1,52,29.59a12.67,12.67,0,0,1,.57,5.86,2.71,2.71,0,0,0,0,.29,14.14,14.14,0,0,1-.93,3.18,16.17,16.17,0,0,1-6.39,7.27,21.27,21.27,0,0,1-8.86,3.13,26.12,26.12,0,0,1-5.23.1c-.9-.07-1.8-.24-2.69-.37a2,2,0,0,0-1.59.43,12.86,12.86,0,0,1-4.33,2.2c-.41.12-.83.22-1.25.33l-.16,0c-.15,0-.34.06-.43-.13s0-.3.12-.41c.3-.36.62-.69.93-1A7,7,0,0,0,23,48.58a1.26,1.26,0,0,0-.6-1.81,18.92,18.92,0,0,1-3.88-2.89,14.45,14.45,0,0,1-4.35-8.06A16.49,16.49,0,0,1,14,33.72ZM33.53,31a2.68,2.68,0,0,0-2.71,2.6,2.75,2.75,0,0,0,2.54,2.77,2.7,2.7,0,0,0,2.87-2.7A2.66,2.66,0,0,0,33.53,31Zm8.69,0a2.67,2.67,0,0,0-2.73,2.59A2.74,2.74,0,0,0,42,36.41a2.69,2.69,0,0,0,2.86-2.68A2.65,2.65,0,0,0,42.22,31Zm-14.7,2.67A2.68,2.68,0,0,0,24.69,31,2.69,2.69,0,1,0,25,36.41,2.68,2.68,0,0,0,27.52,33.71Z"/><path class="cls-1" d="M33.53,31a2.66,2.66,0,0,1,2.7,2.67,2.7,2.7,0,0,1-2.87,2.7,2.75,2.75,0,0,1-2.54-2.77A2.68,2.68,0,0,1,33.53,31Z"/><path class="cls-1" d="M42.22,31a2.65,2.65,0,0,1,2.68,2.69A2.69,2.69,0,0,1,42,36.41a2.74,2.74,0,0,1-2.55-2.78A2.67,2.67,0,0,1,42.22,31Z"/><path class="cls-1" d="M27.52,33.71A2.68,2.68,0,0,1,25,36.41,2.69,2.69,0,1,1,24.69,31,2.68,2.68,0,0,1,27.52,33.71Z"/></svg>