<svg id="Layer_1" data-name="Layer 1" xmlns="http://www.w3.org/2000/svg" viewBox="0 0 68 68"><defs><style>.cls-1{fill:#4addc2;}.cls-2{fill:#4caf50;}.cls-3{fill:#fff;}</style></defs><circle class="cls-1" cx="34" cy="34" r="34"/><path class="cls-2" d="M13.72,54.25,14.67,51q.9-3.07,1.81-6.15a.86.86,0,0,0-.08-.73,20.21,20.21,0,0,1-1.7-16.35A20.07,20.07,0,0,1,24,16.33a19.74,19.74,0,0,1,8.42-2.56,20.24,20.24,0,0,1,19.09,10,19.39,19.39,0,0,1,2.62,12.51A19.82,19.82,0,0,1,43.46,51.93,19.48,19.48,0,0,1,31,54.05a19.73,19.73,0,0,1-7.1-2.48.8.8,0,0,0-.69-.06L14.1,54.18Zm26.82-8.69a6.92,6.92,0,0,0,1.2-.08A4.65,4.65,0,0,0,45.47,40a.68.68,0,0,0-.66-.64c-.64-.1-1.26-.28-1.89-.43-1.64-.37-3.27-.74-4.91-1.13a.39.39,0,0,0-.54.25c-.24.5-.5,1-.77,1.49s-.16.68-.94.37c-.31-.12-.61-.24-.91-.39a13.89,13.89,0,0,1-6.92-7.41c-.15-.35-.1-.53.27-.68.61-.27,1.2-.6,1.81-.9.23-.11.29-.22.23-.5-.3-1.19-.55-2.4-.83-3.6s-.51-2.24-.77-3.36c0-.17-.07-.36-.3-.43a4.58,4.58,0,0,0-5.79,3.57,12.52,12.52,0,0,0,.38,5.09A18.54,18.54,0,0,0,40.54,45.56Z"/><path class="cls-3" d="M40.54,45.56A18.54,18.54,0,0,1,22.93,31.27a12.52,12.52,0,0,1-.38-5.09,4.58,4.58,0,0,1,5.79-3.57c.23.07.26.26.3.43.26,1.12.52,2.24.77,3.36s.53,2.41.83,3.6c.06.28,0,.39-.23.5-.61.3-1.2.63-1.81.9-.37.15-.42.33-.27.68a13.89,13.89,0,0,0,6.92,7.41c.3.15.6.27.91.39.78.31.59.26.94-.37s.53-1,.77-1.49a.39.39,0,0,1,.54-.25c1.64.39,3.27.76,4.91,1.13.63.15,1.25.33,1.89.43a.68.68,0,0,1,.66.64,4.65,4.65,0,0,1-3.73,5.51A6.92,6.92,0,0,1,40.54,45.56Z"/></svg>